<?xml version="1.0" encoding="utf-8"?><svg xml:space="preserve" viewBox="0 0 100 100" y="0" x="0" xmlns="http://www.w3.org/2000/svg" id="Layer_1" version="1.1" width="200px" height="200px" xmlns:xlink="http://www.w3.org/1999/xlink" style="width:100%;height:100%;background-size:initial;background-repeat-y:initial;background-repeat-x:initial;background-position-y:initial;background-position-x:initial;background-origin:initial;background-color:initial;background-clip:initial;background-attachment:initial;animation-play-state:paused" ><g class="ldl-scale" style="transform-origin:50% 50%;transform:rotate(0deg) scale(0.8, 0.8);animation-play-state:paused" ><path stroke-miterlimit="10" stroke-width="1.649" stroke="#f4e6c8" fill="none" d="M32.2 49.9c4.8-4.1 11-6.6 17.7-6.6 6.5 0 12.5 2.3 17.2 6.2" style="stroke:rgb(244, 230, 200);animation-play-state:paused" ></path>
<path stroke-miterlimit="10" stroke-width="1.649" stroke="#f4e6c8" fill="none" d="M32.2 52.4c4.8-4.1 11-6.6 17.7-6.6 6.5 0 12.5 2.3 17.2 6.2" style="stroke:rgb(244, 230, 200);animation-play-state:paused" ></path>
<path stroke-miterlimit="10" stroke-width="1.649" stroke="#f4e6c8" fill="none" d="M32.2 54.9c4.8-4.1 11-6.6 17.7-6.6 6.5 0 12.5 2.3 17.2 6.2" style="stroke:rgb(244, 230, 200);animation-play-state:paused" ></path>
<path stroke-miterlimit="10" stroke="#f4e6c8" fill="none" stroke-width="2.303" d="M27.4 50.5c6.1-6.3 14-10.2 22.6-10.2 8.3 0 16 3.6 22 9.5" style="stroke:rgb(244, 230, 200);animation-play-state:paused" ></path>
<path stroke-miterlimit="10" stroke="#f4e6c8" fill="none" stroke-width="2.666" d="M24.7 49c6.8-7.6 15.7-12.2 25.3-12.2 9.3 0 17.9 4.3 24.7 11.4" style="stroke:rgb(244, 230, 200);animation-play-state:paused" ></path>
<path fill="#e0e0e0" d="M81.9 50.7c.2-1.9-1.1-3.5-2.8-3.5H21c-1.7 0-3 1.6-2.8 3.5 1.2 13.6 9.6 25 20.9 29.5l-.3 3.6c-.2 2 1.4 3.6 3.3 3.6h16c2 0 3.5-1.7 3.3-3.6l-.4-3.6c11.3-4.5 19.7-15.9 20.9-29.5z" style="fill:rgb(224, 224, 224);animation-play-state:paused" ></path>
<g style="animation-play-state:paused" ><path fill="#333" d="M50.5 12.5c-.2 1.5-.4 3-.4 4.4 0 1.4.4 2.7.7 4.1.4 1.4.8 3 .6 4.7-.2 1.6-.7 3.2-1.8 4.3.3-1.5.3-3 .2-4.3-.1-1.4-.6-2.7-1-4.1-.4-1.4-.7-3.1-.4-4.8.4-1.6 1.1-3 2.1-4.3z" style="fill:rgb(51, 51, 51);animation-play-state:paused" ></path></g>
<g style="animation-play-state:paused" ><path fill="#333" d="M40.5 14.5c-.2 1.5-.4 3-.4 4.4 0 1.4.4 2.7.7 4.1.4 1.4.8 3 .6 4.7-.2 1.6-.7 3.2-1.8 4.3.3-1.5.3-3 .2-4.3-.1-1.4-.6-2.7-1-4.1-.4-1.4-.7-3.1-.4-4.8.4-1.6 1.1-3 2.1-4.3z" style="fill:rgb(51, 51, 51);animation-play-state:paused" ></path></g>
<g style="animation-play-state:paused" ><path fill="#333" d="M60.5 14.5c-.2 1.5-.4 3-.4 4.4 0 1.4.4 2.7.7 4.1.4 1.4.8 3 .6 4.7-.2 1.6-.7 3.2-1.8 4.3.3-1.5.3-3 .2-4.3-.1-1.4-.6-2.7-1-4.1-.4-1.4-.7-3.1-.4-4.8.4-1.6 1.1-3 2.1-4.3z" style="fill:rgb(51, 51, 51);animation-play-state:paused" ></path></g>
<path fill="#d65a62" d="M18.4 53.4h63.1c.1-.7.2-1.3.3-2H18.2c.1.6.1 1.3.2 2z" style="fill:rgb(214, 90, 98);animation-play-state:paused" ></path>
<path fill="#d65a62" d="M19.3 57.4h61.3c.2-.7.3-1.3.5-2H18.8c.2.6.3 1.3.5 2z" style="fill:rgb(214, 90, 98);animation-play-state:paused" ></path>
<metadata xmlns:d="https://loading.io/stock/" style="animation-play-state:paused" ><d:name style="animation-play-state:paused" >noodle</d:name>
<d:tags style="animation-play-state:paused" >chinese food,spaghetti,pasta,bowl,noodle,food</d:tags>
<d:license style="animation-play-state:paused" >by</d:license>
<d:slug style="animation-play-state:paused" >vv4eqy</d:slug></metadata></g><!-- generated by https://loading.io/ --></svg>