<?xml version="1.0" encoding="utf-8"?><svg xml:space="preserve" viewBox="0 0 100 100" y="0" x="0" xmlns="http://www.w3.org/2000/svg" id="Layer_1" version="1.1" width="200px" height="200px" xmlns:xlink="http://www.w3.org/1999/xlink" style="width:100%;height:100%;background-size:initial;background-repeat-y:initial;background-repeat-x:initial;background-position-y:initial;background-position-x:initial;background-origin:initial;background-color:initial;background-clip:initial;background-attachment:initial;animation-play-state:paused" ><g class="ldl-scale" style="transform-origin:50% 50%;transform:rotate(0deg) scale(0.8, 0.8);animation-play-state:paused" ><g style="animation-play-state:paused" ><path fill="#acbd81" d="M60.3 90H39.7c-12.2 0-22-9.9-22-22v-7.9c0-.8.7-1.5 1.5-1.5h61.6c.8 0 1.5.7 1.5 1.5V68c0 12.1-9.8 22-22 22z" style="fill:rgb(250, 250, 250);animation-play-state:paused" ></path>
<path stroke-miterlimit="10" stroke-linecap="round" stroke="#fff" stroke-width="2" fill="#acbd81" d="M22.3 71.3c-.4-1.7-.7-3.5-.7-5.4v-3.6" style="stroke:rgb(255, 255, 255);fill:rgb(250, 250, 250);animation-play-state:paused" ></path>
<path stroke-miterlimit="10" stroke-linecap="round" stroke="#fff" stroke-width="2" fill="#acbd81" d="M25.1 77.8c-.4-.6-.7-1.2-1-1.8" style="stroke:rgb(255, 255, 255);fill:rgb(250, 250, 250);animation-play-state:paused" ></path></g>
<g style="animation-play-state:paused" ><path fill="#c7c7c6" d="M52.3 53.4c-2-.8-3.8-2-5.3-3.7-1.5-1.7-2.6-4-2.9-6.4-.4-2.4-.1-4.8.5-7.1.6-2.2 1.6-4.3 2.7-6.2 1.8-3.2 3.3-6.4 3.6-9.6.2-1.6 0-3.3-.6-5.1-.5-1.8-1.5-3.5-2.6-5.3 2 .7 3.8 2 5.3 3.7 1.5 1.7 2.6 4 2.9 6.4.4 2.4.1 4.8-.5 7.1-.6 2.2-1.6 4.3-2.7 6.2-1.8 3.2-3.4 6.4-3.7 9.6-.2 1.6 0 3.3.6 5.1.7 1.7 1.6 3.5 2.7 5.3z" style="fill:rgb(222, 222, 222);animation-play-state:paused" ></path></g>
<g style="animation-play-state:paused" ><path fill="#c7c7c6" d="M31.7 52.3c-1.7-.3-3.4-.9-4.9-2.1-1.5-1.1-2.8-2.9-3.3-5.1-.5-2.1-.2-4.3.5-6.2.7-1.9 1.7-3.5 2.8-4.9 1.7-2.3 3.1-4.4 3.4-6.5.1-1.1-.1-2.3-.7-3.6-.6-1.3-1.5-2.7-2.5-4.1 1.7.3 3.4.9 4.9 2.1 1.5 1.1 2.8 2.9 3.3 5.1.5 2.2.1 4.4-.6 6.2-.5 1.8-1.6 3.4-2.7 4.8-1.8 2.3-3.1 4.4-3.4 6.5-.1 1.1.1 2.3.7 3.6.6 1.4 1.5 2.7 2.5 4.2z" style="fill:rgb(222, 222, 222);animation-play-state:paused" ></path></g>
<g style="animation-play-state:paused" ><path fill="#c7c7c6" d="M72.9 52.3c-1.7-.3-3.4-.9-4.9-2.1-1.5-1.1-2.8-2.9-3.3-5.1-.5-2.2-.1-4.4.6-6.2.7-1.9 1.7-3.5 2.8-4.9 1.7-2.3 3.1-4.4 3.4-6.5.1-1.1-.1-2.3-.7-3.6-.6-1.3-1.5-2.7-2.5-4.1 1.7.3 3.4.9 4.9 2.1 1.5 1.1 2.8 2.9 3.3 5.1.5 2.2.1 4.4-.6 6.2-.7 1.9-1.7 3.5-2.8 4.9-1.8 2.3-3.1 4.4-3.4 6.5-.1 1.1.1 2.3.7 3.6.6 1.3 1.5 2.6 2.5 4.1z" style="fill:rgb(222, 222, 222);animation-play-state:paused" ></path></g>
<metadata xmlns:d="https://loading.io/stock/" style="animation-play-state:paused" ><d:name style="animation-play-state:paused" >soup</d:name>
<d:tags style="animation-play-state:paused" >soup,hot,coffee,chowder,broth,drink,food</d:tags>
<d:license style="animation-play-state:paused" >by</d:license>
<d:slug style="animation-play-state:paused" >3b8ro9</d:slug></metadata></g><!-- generated by https://loading.io/ --></svg>