<svg width="196" height="178" viewBox="0 0 196 178" fill="none" xmlns="http://www.w3.org/2000/svg">
<path d="M28.012 127.452C24.7438 119.059 28.9413 106.488 28.9413 106.488C28.9413 106.488 41.3685 112.884 44.5596 122.52C47.2739 130.716 45.5 143.5 45.5 143.5C45.5 143.5 31.5424 136.517 28.012 127.452Z" stroke="white" stroke-width="2"/>
<path d="M44.6116 143.183C44.6116 143.183 29.4347 145.297 21.4048 140.005C13.9711 135.106 9.7345 122.414 9.7345 122.414C9.7345 122.414 19.5941 119.916 27.7034 125.871" stroke="white" stroke-width="2"/>
<path d="M67.0228 21.9179C69.0856 15.3346 74.9682 12.459 74.9682 12.459C74.9682 12.459 72.2931 16.9556 73.0765 21.9179C74.8197 32.9609 83.5301 36.5105 82.5353 47.646C81.4652 59.6248 74.5899 62.4018 74.5899 62.4018C74.5899 62.4018 78.8299 56.8905 78.3734 47.646C77.8389 36.8214 63.7822 32.2598 67.0228 21.9179Z" fill="white" stroke="white" stroke-width="2"/>
<path d="M90.203 14.322C92.2421 6.44207 98.057 3 98.057 3C98.057 3 95.4127 8.38228 96.187 14.322C97.9102 27.5402 106.52 31.7889 105.537 45.1178C104.479 59.4561 97.683 62.7801 97.683 62.7801C97.683 62.7801 101.874 56.1832 101.423 45.1178C100.895 32.1611 86.9997 26.701 90.203 14.322Z" fill="white" stroke="white" stroke-width="2"/>
<path d="M113.667 22.2962C115.729 15.7129 121.612 12.8373 121.612 12.8373C121.612 12.8373 118.937 17.3339 119.72 22.2962C121.464 33.3392 130.174 36.8888 129.179 48.0243C128.109 60.0031 121.234 62.7801 121.234 62.7801C121.234 62.7801 125.474 57.2688 125.017 48.0243C124.483 37.1997 110.426 32.6381 113.667 22.2962Z" fill="white" stroke="white" stroke-width="2"/>
<rect x="1.68262" y="144.074" width="192.431" height="18.9066" stroke="white" stroke-width="2"/>
<rect x="15.2719" y="162.89" width="34.5865" height="13.6799" stroke="white" stroke-width="2"/>
<rect x="144.893" y="162.89" width="34.5865" height="13.6799" stroke="white" stroke-width="2"/>
<path d="M134.168 133.724C131.728 140.654 136.201 144.119 136.201 144.119H181.749C181.749 144.119 186.751 143.616 186.751 136.686C186.751 131.015 180.5 129.5 180.5 129.5C180.5 129.5 179.5 123.682 173.5 122C167.5 120.318 163.042 124.628 163.042 124.628C163.042 124.628 158.144 119.775 152.062 121.163C146.368 122.462 144.741 128.959 144.741 128.959C144.741 128.959 136.608 126.794 134.168 133.724Z" stroke="white" stroke-width="2"/>
<path d="M46.1544 118.84C55.5624 109.101 64.9704 101.784 93.1942 101.261C121.418 100.738 134.998 107.183 144.415 117.464M46.1544 118.84C46.1544 118.84 54.6835 119.041 59.8071 121.273C64.2892 123.226 61.7125 129.485 66.9422 129.485C73.2379 129.485 68.151 119.292 74.4971 119.752C79.114 120.087 75.5832 125.835 79.114 125.835C82.8914 125.835 79.3117 118.935 83.3111 118.84C87.7826 118.734 84.3813 125.501 88.7674 126.139C93.7877 126.87 91.5642 121.229 95.4829 118.84C109.834 110.092 144.415 117.464 144.415 117.464M46.1544 118.84L44.0638 121.645M144.415 117.464C144.415 117.464 145.983 118.84 148.597 122.69" stroke="white" stroke-width="2"/>
<path d="M142.326 74.8532C146.469 70.2592 156.526 67.7657 156.526 67.7657L154.905 80.4565L167.735 76.9211C167.735 76.9211 164.599 89.3679 158.501 93.7754C152.005 98.4718 138.184 96.905 138.184 96.905C138.184 96.905 136.441 81.3773 142.326 74.8532Z" stroke="white" stroke-width="2"/>
<path d="M31.4397 91.8523C27.2716 87.2807 25.7705 77.0281 25.7705 77.0281L38.2428 79.8789L35.9751 66.7651C35.9751 66.7651 48.0568 71.1003 51.8489 77.5982C55.8895 84.522 52.9827 98.1241 52.9827 98.1241C52.9827 98.1241 37.3591 98.3446 31.4397 91.8523Z" stroke="white" stroke-width="2"/>
<circle cx="72.2877" cy="90.285" r="4.74931" stroke="white" stroke-width="2"/>
<circle cx="119.327" cy="89.2397" r="4.74931" stroke="white" stroke-width="2"/>
<path d="M73.5379 93.7694L76.469 102.829M118.077 92.8983L114.623 102.829M138.666 96.8183L131.103 106.836M52.9491 98.125L60.2664 108.056" stroke="white" stroke-width="2"/>
</svg>
