<svg width="214" height="200" viewBox="0 0 214 200" fill="none" xmlns="http://www.w3.org/2000/svg">
<path d="M77.0228 32.9179C79.0856 26.3346 84.9683 23.459 84.9683 23.459C84.9683 23.459 82.2931 27.9556 83.0765 32.9179C84.8198 43.9609 93.5302 47.5105 92.5354 58.646C91.4652 70.6248 84.5899 73.4018 84.5899 73.4018C84.5899 73.4018 88.83 67.8905 88.3735 58.646C87.839 47.8214 73.7823 43.2598 77.0228 32.9179Z" fill="white" stroke="white" stroke-width="2"/>
<path d="M100.203 25.322C102.242 17.4421 108.057 14 108.057 14C108.057 14 105.413 19.3823 106.187 25.322C107.91 38.5402 116.52 42.7889 115.537 56.1178C114.479 70.4561 107.683 73.7801 107.683 73.7801C107.683 73.7801 111.874 67.1832 111.423 56.1178C110.895 43.1611 96.9998 37.701 100.203 25.322Z" fill="white" stroke="white" stroke-width="2"/>
<path d="M123.667 33.2962C125.729 26.7129 131.612 23.8373 131.612 23.8373C131.612 23.8373 128.937 28.3339 129.72 33.2962C131.464 44.3392 140.174 47.8888 139.179 59.0243C138.109 71.0031 131.234 73.7801 131.234 73.7801C131.234 73.7801 135.474 68.2688 135.017 59.0243C134.483 48.1997 120.426 43.6381 123.667 33.2962Z" fill="white" stroke="white" stroke-width="2"/>
<rect x="11.4326" y="154.824" width="192.931" height="19.4066" stroke="white" stroke-width="1.5"/>
<rect x="24.7719" y="174.39" width="35.5865" height="14.6799" stroke="white"/>
<path d="M154.393 174.39H189.979V189.07H154.393V174.39Z" stroke="white"/>
<path d="M53 136C53 136 53.5 135 59 128.5C64.5 122 76.5 108 94.5 108C102.518 108 111.525 109.455 120 113C128.475 116.545 135.5 121.5 141.5 127C147.5 132.5 151 138.5 156 138.5C161 138.5 163 128 166.5 125C170.456 121.609 181 120 181 120C181 120 181.266 127.824 179 132C177.024 135.641 171.5 139.5 171.5 139.5C171.5 139.5 179.485 139.487 184 141.5C188.317 143.424 193.5 149 193.5 149C193.5 149 186 155 181 155H178.5" stroke="white"/>
<path d="M27 154.555C27.5019 143.087 36.7781 134.216 47.3903 135.055C57.2183 135.832 64.5352 143.934 65 154.555" stroke="white"/>
<path d="M49.0392 152.013C49.1588 152.92 60.0312 153.952 60.5832 152.484C61.1351 151.015 58.2841 146.348 57.3551 146.369C56.4262 146.39 48.9197 151.105 49.0392 152.013Z" stroke="white"/>
<path d="M46.5533 151.003C47.3061 151.63 55.7819 143.228 55.0797 141.577C54.3774 139.925 48.9568 138.611 48.3291 139.421C47.7015 140.232 45.8005 150.376 46.5533 151.003Z" stroke="white"/>
<path d="M43.642 150.854C44.5477 150.653 45.151 140.045 43.5463 139.593C41.9415 139.141 36.4843 142.164 36.679 143.13C36.8736 144.097 42.7364 151.054 43.642 150.854Z" stroke="white"/>
<path d="M40.3174 152.463C41.0778 151.763 35.3443 144.896 33.5847 145.608C31.8252 146.32 29.4997 151.178 30.1783 151.687C30.857 152.196 39.557 153.162 40.3174 152.463Z" stroke="white"/>
<path d="M120 154.921C120.441 145.584 128.589 138.362 137.912 139.045C146.545 139.677 152.973 146.274 153.381 154.921" stroke="white"/>
<path d="M140.039 151.924C140.222 152.557 148.721 152.148 149 151.045C149.278 149.941 146.609 146.919 145.894 147.032C145.179 147.144 139.856 151.29 140.039 151.924Z" stroke="white"/>
<path d="M136.964 151.572C137.563 152.059 144.03 145.885 143.452 144.626C142.874 143.367 138.619 142.27 138.143 142.869C137.668 143.469 136.365 151.084 136.964 151.572Z" stroke="white"/>
<path d="M134.682 151.723C135.417 151.553 136.035 143.131 134.743 142.794C133.451 142.457 129.002 144.927 129.148 145.69C129.293 146.454 133.948 151.894 134.682 151.723Z" stroke="white"/>
<path d="M131.474 152.554C132.036 152.056 127.624 146.947 126.312 147.439C125 147.931 123.324 151.443 123.842 151.826C124.359 152.209 130.913 153.053 131.474 152.554Z" stroke="white"/>
<circle cx="68" cy="135" r="4.5" stroke="white"/>
<path d="M72 121C72 121 80.0485 123.448 83 129.5C86.8783 137.452 78.5 150.5 78.5 150.5" stroke="white"/>
<path d="M86 97.5L86.0196 97.0004L85.5 96.98V97.5H86ZM103.5 99.5L103.385 99.9867L103.5 99.5ZM119 105L119.245 104.564L119.245 104.564L119 105ZM144.618 130.323C144.797 130.534 145.112 130.56 145.323 130.382C145.534 130.203 145.56 129.888 145.382 129.677L144.618 130.323ZM84.4569 109.703C85.4904 107.378 85.9962 104.312 86.2474 101.864C86.3737 100.632 86.4368 99.5436 86.4683 98.7624C86.4841 98.3716 86.492 98.0574 86.496 97.8402C86.498 97.7316 86.499 97.6472 86.4995 97.5897C86.4997 97.5609 86.4999 97.5388 86.4999 97.5238C86.5 97.5163 86.5 97.5105 86.5 97.5065C86.5 97.5045 86.5 97.503 86.5 97.5019C86.5 97.5013 86.5 97.5009 86.5 97.5006C86.5 97.5004 86.5 97.5003 86.5 97.5002C86.5 97.5001 86.5 97.5 86 97.5C85.5 97.5 85.5 97.5 85.5 97.5C85.5 97.5 85.5 97.5 85.5 97.5001C85.5 97.5002 85.5 97.5005 85.5 97.5008C85.5 97.5016 85.5 97.5028 85.5 97.5044C85.5 97.5077 85.5 97.5127 85.4999 97.5195C85.4999 97.5331 85.4998 97.5537 85.4995 97.581C85.4991 97.6355 85.4981 97.7167 85.4962 97.8219C85.4923 98.0325 85.4846 98.3393 85.4692 98.722C85.4382 99.4877 85.3763 100.555 85.2526 101.761C85.0038 104.188 84.5096 107.122 83.5431 109.297L84.4569 109.703ZM86 97.5C85.9804 97.9996 85.9804 97.9996 85.9805 97.9996C85.9806 97.9996 85.9807 97.9996 85.9808 97.9996C85.9811 97.9996 85.9815 97.9997 85.9822 97.9997C85.9834 97.9997 85.9853 97.9998 85.9878 97.9999C85.9929 98.0001 86.0005 98.0004 86.0107 98.0008C86.031 98.0017 86.0614 98.0029 86.1014 98.0047C86.1815 98.0081 86.3001 98.0134 86.4536 98.0207C86.7606 98.0353 87.2072 98.0579 87.7641 98.0899C88.8781 98.154 90.4332 98.2559 92.1965 98.4069C95.7302 98.7094 100.075 99.2071 103.385 99.9867L103.615 99.0133C100.23 98.2161 95.8243 97.7138 92.2818 97.4105C90.5072 97.2586 88.9426 97.1561 87.8215 97.0916C87.2609 97.0593 86.8111 97.0365 86.5011 97.0218C86.346 97.0145 86.226 97.0091 86.1445 97.0056C86.1038 97.0038 86.0727 97.0025 86.0517 97.0017C86.0412 97.0013 86.0333 97.0009 86.0279 97.0007C86.0252 97.0006 86.0232 97.0005 86.0218 97.0005C86.0211 97.0004 86.0205 97.0004 86.0202 97.0004C86.02 97.0004 86.0198 97.0004 86.0198 97.0004C86.0196 97.0004 86.0196 97.0004 86 97.5ZM103.385 99.9867C109.63 101.457 113.221 102.325 118.755 105.436L119.245 104.564C113.581 101.38 109.873 100.487 103.615 99.0133L103.385 99.9867ZM118.755 105.436C123.669 108.199 126.635 111.345 130.175 114.38L130.825 113.62C127.365 110.655 124.273 107.391 119.245 104.564L118.755 105.436ZM130.175 114.38C131.892 115.851 135.49 119.819 138.687 123.455C140.279 125.266 141.762 126.983 142.847 128.247C143.39 128.88 143.833 129.399 144.14 129.76C144.293 129.94 144.413 130.081 144.494 130.177C144.535 130.225 144.566 130.261 144.587 130.286C144.597 130.298 144.605 130.307 144.61 130.314C144.613 130.317 144.615 130.319 144.616 130.321C144.617 130.321 144.618 130.322 144.618 130.322C144.618 130.323 144.618 130.323 144.618 130.323C144.618 130.323 144.618 130.323 145 130C145.382 129.677 145.382 129.677 145.382 129.677C145.381 129.677 145.381 129.677 145.381 129.676C145.381 129.676 145.38 129.675 145.38 129.675C145.378 129.673 145.376 129.671 145.374 129.667C145.368 129.661 145.36 129.652 145.35 129.639C145.329 129.615 145.298 129.578 145.257 129.53C145.175 129.434 145.055 129.292 144.901 129.111C144.593 128.75 144.149 128.23 143.606 127.596C142.519 126.33 141.033 124.609 139.438 122.795C136.26 119.181 132.608 115.149 130.825 113.62L130.175 114.38Z" fill="white"/>
<circle cx="163.5" cy="146.5" r="4" stroke="white"/>
<circle cx="163.5" cy="146.5" r="2" stroke="white"/>
<circle cx="163.5" cy="146.5" r="6" stroke="white"/>
<circle cx="163.5" cy="146.5" r="8" stroke="white"/>
<circle cx="177.5" cy="149.5" r="2.66176" stroke="white" stroke-width="0.5"/>
<circle cx="177.5" cy="149.5" r="1.36765" stroke="white" stroke-width="0.5"/>
<circle cx="177.5" cy="149.5" r="3.95588" stroke="white" stroke-width="0.5"/>
<circle cx="177.5" cy="149.5" r="5.25" stroke="white" stroke-width="0.5"/>
<circle cx="70.5" cy="149.5" r="2.66176" stroke="white" stroke-width="0.5"/>
<circle cx="70.5" cy="149.5" r="1.36765" stroke="white" stroke-width="0.5"/>
<circle cx="70.4999" cy="149.5" r="3.95588" stroke="white" stroke-width="0.5"/>
<circle cx="70.5" cy="149.5" r="5.25" stroke="white" stroke-width="0.5"/>
<path d="M80 116C80 116 85.5495 113.646 86.5 116C87.103 117.493 85.5 120 85.5 120C85.5 120 89.3496 119.765 90 121.5C90.6132 123.135 88 125.5 88 125.5C88 125.5 92.907 125.293 93.5 127.5C94.0777 129.65 90 132 90 132C90 132 94.9413 132.724 95 135C95.0535 137.075 91 138.5 91 138.5C91 138.5 97.7255 139.386 97 142C96.6307 143.33 94.5 144.5 94.5 144.5C94.5 144.5 98.8718 146.322 98.5 148.5C98.1326 150.652 93.5 151 93.5 151" stroke="white" stroke-width="0.5"/>
<path d="M89 115.046C89 115.046 94.5495 112.692 95.5 115.046C96.103 116.539 94.5 119.046 94.5 119.046C94.5 119.046 98.3496 118.812 99 120.546C99.6132 122.181 97 124.546 97 124.546C97 124.546 101.907 124.339 102.5 126.546C103.078 128.696 99 131.046 99 131.046C99 131.046 103.941 131.77 104 134.046C104.053 136.121 100 137.546 100 137.546C100 137.546 106.726 138.432 106 141.046C105.631 142.377 103.5 143.546 103.5 143.546C103.5 143.546 107.708 144.569 107.5 146.5C107.32 148.17 104 149 104 149" stroke="white" stroke-width="0.5"/>
<path d="M100 116.046C100 116.046 105.549 113.692 106.5 116.046C107.103 117.539 105.5 120.046 105.5 120.046C105.5 120.046 109.35 119.812 110 121.546C110.613 123.181 108 125.546 108 125.546C108 125.546 112.907 125.339 113.5 127.546C114.078 129.696 110 132.046 110 132.046C110 132.046 114.941 132.77 115 135.046C115.053 137.121 111 138.546 111 138.546C111 138.546 117.726 139.432 117 142.046C116.631 143.377 114.5 144.546 114.5 144.546" stroke="white" stroke-width="0.5"/>
<path d="M110 116.956C110 116.956 114.881 114.805 115.717 116.956C116.247 118.32 114.837 120.611 114.837 120.611C114.837 120.611 118.223 120.397 118.795 121.982C119.335 123.476 117.036 125.637 117.036 125.637C117.036 125.637 121.352 125.448 121.874 127.465C122.382 129.43 118.795 131.577 118.795 131.577C118.795 131.577 123.141 132.238 123.193 134.319C123.24 136.215 119.675 137.517 119.675 137.517C119.675 137.517 125.59 138.327 124.952 140.715C124.627 141.931 122.753 143 122.753 143" stroke="white" stroke-width="0.5"/>
<path d="M122 120.673C122 120.673 125.579 119.159 126.192 120.673C126.581 121.633 125.547 123.245 125.547 123.245C125.547 123.245 128.03 123.094 128.45 124.21C128.845 125.261 127.16 126.782 127.16 126.782C127.16 126.782 130.325 126.649 130.707 128.068C131.08 129.451 128.45 130.962 128.45 130.962C128.45 130.962 131.637 131.427 131.675 132.891C131.709 134.225 129.095 135.142 129.095 135.142C129.095 135.142 133.433 135.711 132.965 137.392C132.727 138.248 131.352 139 131.352 139" stroke="white" stroke-width="0.5"/>
<path d="M131 123.531C131 123.531 133.603 122.336 134.049 123.531C134.332 124.289 133.58 125.562 133.58 125.562C133.58 125.562 135.386 125.443 135.691 126.323C135.978 127.154 134.753 128.354 134.753 128.354C134.753 128.354 137.054 128.249 137.333 129.369C137.604 130.461 135.691 131.654 135.691 131.654C135.691 131.654 138.009 132.021 138.036 133.177C138.061 134.23 136.16 134.954 136.16 134.954C136.16 134.954 139.315 135.404 138.974 136.731C138.801 137.406 137.802 138 137.802 138M138.974 130.385C138.974 130.385 141.577 129.19 142.023 130.385C142.306 131.143 141.554 132.416 141.554 132.416C141.554 132.416 143.36 132.296 143.665 133.177C143.953 134.007 142.727 135.208 142.727 135.208C142.727 135.208 145.029 135.103 145.307 136.223C145.578 137.315 143.665 138.508 143.665 138.508" stroke="white" stroke-width="0.5"/>
<path d="M21.8484 149.554C20.9713 147.331 22.0977 144 22.0977 144C22.0977 144 25.4329 145.695 26.2893 148.247C27.0178 150.419 26.5417 153.806 26.5417 153.806C26.5417 153.806 22.7958 151.956 21.8484 149.554Z" stroke="white"/>
<path d="M114.289 149.6C113.343 147.358 114.558 144 114.558 144C114.558 144 118.154 145.709 119.077 148.282C119.863 150.472 119.349 153.886 119.349 153.886C119.349 153.886 115.31 152.021 114.289 149.6Z" stroke="white"/>
<path d="M26.3032 153.721C26.3032 153.721 22.2301 154.282 20.0751 152.88C18.0801 151.582 16.9431 148.219 16.9431 148.219C16.9431 148.219 19.5891 147.558 21.7655 149.135" stroke="white"/>
<path d="M119.092 153.801C119.092 153.801 114.701 154.366 112.377 152.953C110.226 151.644 109 148.254 109 148.254C109 148.254 111.853 147.587 114.2 149.177" stroke="white"/>
<circle cx="67" cy="133" r="0.5" stroke="white"/>
<rect x="0.5" y="0.5" width="213" height="199" stroke="black"/>
</svg>
