<svg width="214" height="200" viewBox="0 0 214 200" fill="none" xmlns="http://www.w3.org/2000/svg">
<path d="M14.4424 154.647C14.9209 143.711 23.7662 135.252 33.8854 136.052C43.2569 136.793 50.2339 144.519 50.6771 154.647" stroke="white"/>
<path d="M35.4577 152.222C35.5717 153.087 45.9391 154.072 46.4654 152.672C46.9917 151.271 44.2731 146.821 43.3873 146.841C42.5015 146.861 35.3438 151.357 35.4577 152.222Z" stroke="white"/>
<path d="M33.0874 151.259C33.8052 151.857 41.8873 143.846 41.2176 142.271C40.548 140.697 35.3792 139.443 34.7807 140.216C34.1822 140.989 32.3696 150.662 33.0874 151.259Z" stroke="white"/>
<path d="M30.3113 151.117C31.1748 150.926 31.7501 140.811 30.2199 140.38C28.6898 139.949 23.486 142.832 23.6717 143.753C23.8573 144.674 29.4477 151.308 30.3113 151.117Z" stroke="white"/>
<path d="M27.1411 152.651C27.8662 151.985 22.399 145.437 20.7212 146.115C19.0434 146.794 16.826 151.427 17.4731 151.912C18.1202 152.397 26.416 153.318 27.1411 152.651Z" stroke="white"/>
<path d="M122.12 154.5C122.677 142.711 132.965 133.592 144.736 134.454C155.636 135.253 163.751 143.582 164.267 154.5" stroke="white"/>
<path d="M147.421 151.715C147.653 152.515 158.383 151.999 158.735 150.606C159.087 149.212 155.717 145.396 154.814 145.539C153.911 145.681 147.19 150.916 147.421 151.715Z" stroke="white"/>
<path d="M143.539 150.271C144.295 150.887 152.46 143.091 151.731 141.501C151.001 139.911 145.628 138.527 145.028 139.283C144.427 140.04 142.783 149.656 143.539 150.271Z" stroke="white"/>
<path d="M140.658 150.463C141.586 150.247 142.366 139.614 140.735 139.188C139.104 138.762 133.486 141.881 133.67 142.845C133.854 143.809 139.731 150.679 140.658 150.463Z" stroke="white"/>
<path d="M136.608 151.512C137.316 150.882 131.747 144.432 130.09 145.053C128.434 145.674 126.317 150.109 126.971 150.592C127.625 151.075 135.899 152.142 136.608 151.512Z" stroke="white"/>
<path d="M77.0228 32.9179C79.0856 26.3346 84.9683 23.459 84.9683 23.459C84.9683 23.459 82.2931 27.9556 83.0765 32.9179C84.8198 43.9609 93.5302 47.5105 92.5354 58.646C91.4652 70.6248 84.5899 73.4018 84.5899 73.4018C84.5899 73.4018 88.83 67.8905 88.3735 58.646C87.839 47.8214 73.7823 43.2598 77.0228 32.9179Z" fill="white" stroke="white" stroke-width="2"/>
<path d="M100.203 25.322C102.242 17.4421 108.057 14 108.057 14C108.057 14 105.413 19.3823 106.187 25.322C107.91 38.5402 116.52 42.7889 115.537 56.1178C114.479 70.4561 107.683 73.7801 107.683 73.7801C107.683 73.7801 111.874 67.1832 111.423 56.1178C110.895 43.1611 96.9998 37.701 100.203 25.322Z" fill="white" stroke="white" stroke-width="2"/>
<path d="M123.667 33.2962C125.729 26.7129 131.612 23.8373 131.612 23.8373C131.612 23.8373 128.937 28.3339 129.72 33.2962C131.464 44.3392 140.174 47.8888 139.179 59.0243C138.109 71.0031 131.234 73.7801 131.234 73.7801C131.234 73.7801 135.474 68.2688 135.017 59.0243C134.483 48.1997 120.426 43.6381 123.667 33.2962Z" fill="white" stroke="white" stroke-width="2"/>
<rect x="11.4326" y="154.824" width="192.931" height="19.4066" stroke="white" stroke-width="1.5"/>
<rect x="24.7719" y="174.39" width="35.5865" height="14.6799" stroke="white"/>
<path d="M154.393 174.39H189.979V189.07H154.393V174.39Z" stroke="white"/>
<circle cx="52.5571" cy="129.5" r="6" stroke="white"/>
<path d="M30.5 136C30.5 136 33.6906 129.468 40.6586 121.17C47.6265 112.872 62.8294 95 85.6336 95C95.7919 95 107.202 96.8579 117.94 101.383C128.677 105.908 137.577 112.234 145.178 119.255C152.78 126.277 157.214 133.936 163.548 133.936C169.883 133.936 172.417 120.532 176.851 116.702C181.862 112.373 195.221 110.319 195.221 110.319C195.221 110.319 195.558 120.308 192.687 125.638C190.184 130.286 183.185 135.213 183.185 135.213C183.185 135.213 193.279 136.431 199 139C204.47 141.457 208 147.5 208 147.5C208 147.5 201.555 155 195.221 155H187" stroke="white"/>
<path d="M57.0571 112C57.0571 112 67.7663 115.071 71.6935 122.661C76.8538 132.635 67.5 145 67.5 145" stroke="white"/>
<path d="M75.5817 82L75.6013 81.5004L75.0817 81.48V82H75.5817ZM97.6719 84.5231L97.7864 84.0364L97.6719 84.5231ZM117.237 91.4615L116.993 91.8974L116.993 91.8974L117.237 91.4615ZM131.754 102.815L131.429 103.195L131.429 103.195L131.754 102.815ZM149.676 123.323C149.854 123.534 150.169 123.56 150.38 123.382C150.591 123.203 150.617 122.888 150.439 122.677L149.676 123.323ZM73.514 97.3416C74.8098 94.4278 75.4468 90.5777 75.7635 87.4914C75.9226 85.9414 76.0021 84.5707 76.0419 83.5873C76.0618 83.0954 76.0717 82.6999 76.0767 82.4268C76.0792 82.2902 76.0805 82.1842 76.0811 82.112C76.0814 82.0759 76.0816 82.0482 76.0816 82.0294C76.0817 82.02 76.0817 82.0129 76.0817 82.0079C76.0817 82.0055 76.0817 82.0036 76.0817 82.0023C76.0817 82.0016 76.0817 82.0011 76.0817 82.0007C76.0817 82.0005 76.0817 82.0003 76.0817 82.0002C76.0817 82.0001 76.0817 82 75.5817 82C75.0817 82 75.0817 82 75.0817 82C75.0817 82 75.0817 82.0001 75.0817 82.0002C75.0817 82.0004 75.0817 82.0007 75.0817 82.0012C75.0817 82.0022 75.0817 82.0037 75.0817 82.0058C75.0817 82.01 75.0817 82.0165 75.0816 82.0252C75.0816 82.0425 75.0814 82.0687 75.0811 82.1033C75.0805 82.1725 75.0793 82.2753 75.0769 82.4085C75.072 82.675 75.0622 83.0631 75.0427 83.5469C75.0035 84.5148 74.9253 85.8643 74.7688 87.3893C74.4543 90.4531 73.829 94.1722 72.6003 96.9353L73.514 97.3416ZM75.5817 82C75.5622 82.4996 75.5622 82.4996 75.5623 82.4996C75.5624 82.4996 75.5625 82.4996 75.5627 82.4996C75.563 82.4997 75.5636 82.4997 75.5644 82.4997C75.566 82.4998 75.5684 82.4999 75.5716 82.5C75.578 82.5003 75.5877 82.5006 75.6006 82.5012C75.6263 82.5022 75.6648 82.5038 75.7154 82.506C75.8167 82.5104 75.9666 82.5171 76.1606 82.5263C76.5485 82.5447 77.1126 82.5732 77.8161 82.6137C79.2232 82.6946 81.1874 82.8232 83.4148 83.0137C87.8765 83.3955 93.3688 84.0239 97.5573 85.0098L97.7864 84.0364C93.5233 83.033 87.9705 82.3999 83.5 82.0174C81.2614 81.8258 79.2877 81.6966 77.8735 81.6153C77.1663 81.5746 76.5989 81.5459 76.208 81.5274C76.0125 81.5181 75.8611 81.5114 75.7585 81.5069C75.7072 81.5047 75.668 81.5031 75.6416 81.502C75.6284 81.5015 75.6184 81.5011 75.6117 81.5008C75.6083 81.5007 75.6057 81.5006 75.604 81.5005C75.6031 81.5005 75.6025 81.5004 75.602 81.5004C75.6018 81.5004 75.6016 81.5004 75.6015 81.5004C75.6014 81.5004 75.6013 81.5004 75.5817 82ZM97.5573 85.0098C105.442 86.8656 109.99 87.963 116.993 91.8974L117.482 91.0256C110.35 87.018 105.685 85.8955 97.7864 84.0364L97.5573 85.0098ZM116.993 91.8974C123.21 95.3913 126.97 99.3762 131.429 103.195L132.079 102.436C127.701 98.6854 123.814 94.5835 117.482 91.0256L116.993 91.8974ZM131.429 103.195C133.605 105.059 138.154 110.073 142.187 114.657C144.197 116.942 146.069 119.108 147.439 120.704C148.124 121.502 148.683 122.157 149.071 122.612C149.265 122.84 149.416 123.018 149.519 123.139C149.57 123.199 149.609 123.245 149.636 123.276C149.649 123.292 149.659 123.303 149.666 123.311C149.669 123.315 149.671 123.318 149.673 123.32C149.674 123.321 149.675 123.322 149.675 123.322C149.675 123.323 149.675 123.323 149.675 123.323C149.675 123.323 149.676 123.323 150.057 123C150.439 122.677 150.439 122.677 150.439 122.677C150.438 122.677 150.438 122.676 150.438 122.676C150.438 122.676 150.437 122.675 150.436 122.674C150.434 122.672 150.432 122.669 150.429 122.665C150.422 122.657 150.412 122.645 150.399 122.629C150.372 122.598 150.333 122.552 150.281 122.491C150.178 122.37 150.027 122.192 149.832 121.964C149.444 121.507 148.884 120.852 148.198 120.053C146.826 118.455 144.951 116.285 142.938 113.997C138.924 109.434 134.321 104.356 132.079 102.436L131.429 103.195Z" fill="white"/>
<circle cx="174.043" cy="143.868" r="5.18171" stroke="white"/>
<circle cx="174.043" cy="143.867" r="2.65651" stroke="white"/>
<circle cx="174.043" cy="143.867" r="7.70692" stroke="white"/>
<circle cx="174.043" cy="143.867" r="10.2321" stroke="white"/>
<path d="M68.0571 105.335C68.0571 105.335 74.9481 102.331 76.1284 105.335C76.8771 107.24 74.8867 110.44 74.8867 110.44C74.8867 110.44 79.6668 110.14 80.4745 112.354C81.236 114.441 77.991 117.458 77.991 117.458C77.991 117.458 84.0842 117.194 84.8206 120.011C85.5379 122.754 80.4745 125.753 80.4745 125.753C80.4745 125.753 86.6103 126.677 86.6832 129.582C86.7496 132.23 81.7162 134.048 81.7162 134.048C81.7162 134.048 90.0676 135.179 89.1667 138.515C88.7081 140.212 86.0623 141.705 86.0623 141.705C86.0623 141.705 91.491 144.031 91.0293 146.81C90.573 149.556 84.8206 150 84.8206 150" stroke="white" stroke-width="0.5"/>
<path d="M79.0571 104.315C79.0571 104.315 85.9537 101.356 87.135 104.315C87.8843 106.192 85.8922 109.344 85.8922 109.344C85.8922 109.344 90.6762 109.049 91.4846 111.229C92.2466 113.285 88.9991 116.258 88.9991 116.258C88.9991 116.258 95.0972 115.997 95.8342 118.772C96.5521 121.475 91.4846 124.429 91.4846 124.429C91.4846 124.429 97.6254 125.339 97.6983 128.201C97.7647 130.809 92.7273 132.601 92.7273 132.601C92.7273 132.601 101.085 133.715 100.184 137.001C99.7248 138.673 97.0769 140.144 97.0769 140.144C97.0769 140.144 102.306 141.43 102.048 143.857C101.824 145.957 97.6983 147 97.6983 147" stroke="white" stroke-width="0.5"/>
<path d="M93.0571 105.31C93.0571 105.31 99.8903 102.362 101.061 105.31C101.803 107.18 99.8294 110.319 99.8294 110.319C99.8294 110.319 104.57 110.026 105.37 112.198C106.126 114.245 102.908 117.207 102.908 117.207C102.908 117.207 108.95 116.947 109.68 119.711C110.391 122.404 105.37 125.346 105.37 125.346C105.37 125.346 111.455 126.253 111.527 129.103C111.593 131.702 106.602 133.486 106.602 133.486C106.602 133.486 114.883 134.596 113.99 137.869C113.535 139.535 110.911 141 110.911 141" stroke="white" stroke-width="0.5"/>
<path d="M105.057 106.204C105.057 106.204 111.24 103.495 112.299 106.204C112.97 107.922 111.184 110.807 111.184 110.807C111.184 110.807 115.473 110.537 116.198 112.533C116.881 114.415 113.97 117.136 113.97 117.136C113.97 117.136 119.436 116.897 120.097 119.437C120.741 121.912 116.198 124.616 116.198 124.616C116.198 124.616 121.703 125.448 121.768 128.068C121.828 130.456 117.312 132.096 117.312 132.096C117.312 132.096 124.804 133.115 123.996 136.123C123.585 137.654 121.211 139 121.211 139" stroke="white" stroke-width="0.5"/>
<path d="M121.057 110.85C121.057 110.85 125.287 108.938 126.012 110.85C126.471 112.062 125.25 114.099 125.25 114.099C125.25 114.099 128.184 113.908 128.68 115.317C129.147 116.646 127.155 118.566 127.155 118.566C127.155 118.566 130.895 118.398 131.348 120.191C131.788 121.938 128.68 123.846 128.68 123.846C128.68 123.846 132.446 124.434 132.491 126.283C132.532 127.969 129.442 129.126 129.442 129.126C129.442 129.126 134.568 129.846 134.015 131.969C133.734 133.05 132.11 134 132.11 134" stroke="white" stroke-width="0.5"/>
<path d="M132.057 114.685C132.057 114.685 135.326 113.144 135.886 114.685C136.241 115.662 135.297 117.304 135.297 117.304C135.297 117.304 137.565 117.15 137.948 118.286C138.309 119.357 136.77 120.905 136.77 120.905C136.77 120.905 139.66 120.769 140.01 122.215C140.35 123.622 137.948 125.161 137.948 125.161C137.948 125.161 140.859 125.635 140.893 127.125C140.925 128.484 138.537 129.417 138.537 129.417C138.537 129.417 142.499 129.997 142.072 131.708C141.854 132.579 140.599 133.345 140.599 133.345M142.072 123.524C142.072 123.524 145.341 121.983 145.901 123.524C146.256 124.502 145.311 126.143 145.311 126.143C145.311 126.143 147.579 125.99 147.962 127.125C148.324 128.196 146.784 129.744 146.784 129.744C146.784 129.744 149.675 129.608 150.024 131.054C150.364 132.461 147.962 134 147.962 134" stroke="white" stroke-width="0.5"/>
<path d="M59.7469 145.965C63.9316 144.525 69.9997 146.882 69.9997 146.882C69.9997 146.882 66.5915 152.912 61.7991 154.287C57.7226 155.456 51.4971 154.297 51.4971 154.297C51.4971 154.297 55.2265 147.52 59.7469 145.965Z" stroke="white"/>
<path d="M114.909 148.781C113.715 145.951 115.249 141.711 115.249 141.711C115.249 141.711 119.789 143.868 120.955 147.118C121.947 149.882 121.299 154.193 121.299 154.193C121.299 154.193 116.199 151.838 114.909 148.781Z" stroke="white"/>
<path d="M51.6725 153.863C51.6725 153.863 50.9706 146.283 53.7408 142.411C56.3053 138.828 62.6184 137 62.6184 137C62.6184 137 63.6254 141.949 60.5283 145.846" stroke="white"/>
<path d="M120.974 154.086C120.974 154.086 115.429 154.799 112.496 153.015C109.78 151.362 108.232 147.082 108.232 147.082C108.232 147.082 111.834 146.24 114.797 148.248" stroke="white"/>
<circle cx="51.0571" cy="127" r="0.5" stroke="white"/>
</svg>
