<?xml version="1.0" encoding="utf-8"?><svg xml:space="preserve" viewBox="0 0 100 100" y="0px" x="0px" xmlns:xlink="http://www.w3.org/1999/xlink" xmlns="http://www.w3.org/2000/svg" id="圖層_1" version="1.1" width="200px" height="200px" style="width:100%;height:100%;background-size:initial;background-repeat-y:initial;background-repeat-x:initial;background-position-y:initial;background-position-x:initial;background-origin:initial;background-image:initial;background-color:rgb(255, 255, 255);background-clip:initial;background-attachment:initial;animation-play-state:paused" ><g class="ldl-scale" style="transform-origin:50% 50%;transform:rotate(0deg) scale(0.8, 0.8);animation-play-state:paused" ><path d="M83.42,60.86c1.94-0.35,3.56-1.54,4.22-3.32c0.93-2.53-0.38-5.4-2.98-6.9c1.36-0.55,2.45-1.57,2.96-2.95c1.03-2.79-0.68-6-3.83-7.31 c2.49-1.89,3.42-5.05,2.04-7.46c-1.4-2.43-4.65-3.23-7.56-1.99c0.06-1.83-0.65-3.55-2.1-4.59c-1.82-1.3-4.28-1.17-6.28,0.12 c-0.62-1.7-1.91-3.02-3.62-3.45c-2.25-0.57-4.59,0.56-5.96,2.64c-0.82-2.12-2.61-3.62-4.76-3.72c-1.93-0.09-3.68,0.98-4.75,2.68 c-1.45-1.48-3.46-2.16-5.37-1.6c-2.25,0.66-3.68,2.84-3.79,5.35c-1.49-0.22-2.99,0.13-4.13,1.1c-1.38,1.17-1.95,2.98-1.71,4.82 c-2.06-1.03-4.44-0.93-6.1,0.48c-1.76,1.49-2.21,4.01-1.34,6.32c-1.49-0.21-2.98,0.13-4.12,1.11c-2.05,1.73-2.32,4.87-0.81,7.44 c-1.91,0.17-3.6,1.17-4.43,2.84c-0.98,1.97-0.48,4.33,1.05,6.09c-1.6,0.77-2.77,2.15-3.04,3.87c-0.45,2.79,1.6,5.47,4.68,6.32 c-1.97,2.1-2.43,5.08-0.94,7.22c1.25,1.79,3.55,2.49,5.81,2c0.14,0.15,0.29,0.3,0.43,0.45c-0.26,1.37-0.03,2.77,0.78,3.93 c1.61,2.3,4.92,2.8,7.7,1.3c0.1,0.03,0.2,0.07,0.3,0.1c0.37,2.42,1.97,4.39,4.22,4.85c2.24,0.45,4.48-0.73,5.77-2.81 c2.16,2,5.22,2.42,7.36,0.85c0.2-0.14,0.37-0.31,0.54-0.47c1.93,1.67,4.55,2.12,6.58,0.89c2.16-1.31,2.96-4.09,2.15-6.73 c2.22,1.03,4.75,0.78,6.37-0.84c1.24-1.24,1.68-3.02,1.35-4.79c3.04,0.7,6.07-0.63,7.03-3.24c0.45-1.21,0.37-2.5-0.11-3.68 c2.85,0.43,5.58-0.89,6.49-3.34C83.93,63.27,83.87,62.01,83.42,60.86z" stroke-miterlimit="10" stroke-linejoin="round" stroke-linecap="round" stroke-width="3.5" stroke="#333435" fill="#FFFFFF" style="stroke:rgb(51, 52, 53);fill:rgb(255, 255, 255);animation-play-state:paused" ></path>
<g style="animation-play-state:paused" ><g style="animation-play-state:paused" ><g style="animation-play-state:paused" ><path d="M72.33,53.73c-15.9,18.81-47.49,19.07-56.68,9.66c-2.53-2.59-4-6-4-6c-3.37-7.81-0.61-15.33,0-17c0.81-2.21,1.98-5.29,5-8 c1.02-0.91,4.29-3.77,9-4c3.72-0.18,7.07,1.34,7,2c-0.07,0.65-3.36-0.06-7,2c-1.09,0.61-2.99,1.72-4,4c-0.77,1.73-1.33,4.82,0,6 c2.44,2.16,10.83-2.47,16.59-7.47c7.6-6.59,7.06-9.58,11.68-13.85c8.91-8.22,22.29-5.4,30.07,3.23 C87.4,32.51,77.48,47.64,72.33,53.73z" stroke-miterlimit="10" stroke-linejoin="round" stroke-linecap="round" stroke-width="3.5" stroke="#333435" fill="#E15C64" style="stroke:rgb(51, 52, 53);fill:rgb(225, 92, 100);animation-play-state:paused" ></path>
<path d="M72.33,53.73c-15.9,18.81-47.49,19.07-56.68,9.66c-2.53-2.59-4-6-4-6c-3.37-7.81-0.61-15.33,0-17c0.81-2.21,1.98-5.29,5-8 c1.02-0.91,4.29-3.77,9-4c3.72-0.18,7.07,1.34,7,2c-0.07,0.65-3.36-0.06-7,2c-1.09,0.61-2.99,1.72-4,4c-0.77,1.73-1.33,4.82,0,6 c2.44,2.16,10.83-2.47,16.59-7.47c7.6-6.59,7.06-9.58,11.68-13.85c8.91-8.22,22.29-5.4,30.07,3.23 C87.4,32.51,77.48,47.64,72.33,53.73z" stroke-miterlimit="10" stroke-linejoin="round" stroke-linecap="round" stroke-width="3.5" stroke="#333435" fill="none" style="stroke:rgb(51, 52, 53);animation-play-state:paused" ></path></g>
<g opacity="0.5" style="animation-play-state:paused" ><path d="M80,24.31c-1.63-1.8-3.5-3.34-5.52-4.59c0.01,0.03,0.03,0.05,0.04,0.08c4.5,10.84-8.23,26.42-28.43,34.79 C33.48,59.82,20.94,61,12.2,58.51c0.64,1.22,1.83,3.22,3.45,4.88c9.19,9.4,40.78,9.15,56.68-9.66 C77.48,47.64,87.4,32.51,80,24.31z" fill="#808080" style="fill:rgb(128, 128, 128);animation-play-state:paused" ></path></g></g>
<g style="animation-play-state:paused" ><path d="M72.33,53.73c-15.9,18.81-47.49,19.07-56.68,9.66c-2.53-2.59-4-6-4-6c-3.37-7.81-0.61-15.33,0-17c0.81-2.21,1.98-5.29,5-8 c1.02-0.91,4.29-3.77,9-4c3.72-0.18,7.07,1.34,7,2c-0.07,0.65-3.36-0.06-7,2c-1.09,0.61-2.99,1.72-4,4c-0.77,1.73-1.33,4.82,0,6 c2.44,2.16,10.83-2.47,16.59-7.47c7.6-6.59,7.06-9.58,11.68-13.85c8.91-8.22,22.29-5.4,30.07,3.23 C87.4,32.51,77.48,47.64,72.33,53.73z" stroke-miterlimit="10" stroke-linejoin="round" stroke-linecap="round" stroke-width="3.5" stroke="#333435" fill="none" style="stroke:rgb(51, 52, 53);animation-play-state:paused" ></path>
<path d="M72.33,53.73c-15.9,18.81-47.49,19.07-56.68,9.66c-2.53-2.59-4-6-4-6c-3.37-7.81-0.61-15.33,0-17c0.81-2.21,1.98-5.29,5-8 c1.02-0.91,4.29-3.77,9-4c3.72-0.18,7.07,1.34,7,2c-0.07,0.65-3.36-0.06-7,2c-1.09,0.61-2.99,1.72-4,4c-0.77,1.73-1.33,4.82,0,6 c2.44,2.16,10.83-2.47,16.59-7.47c7.6-6.59,7.06-9.58,11.68-13.85c8.91-8.22,22.29-5.4,30.07,3.23 C87.4,32.51,77.48,47.64,72.33,53.73z" stroke-miterlimit="10" stroke-linejoin="round" stroke-linecap="round" stroke-width="3.5" stroke="#333435" fill="none" style="stroke:rgb(51, 52, 53);animation-play-state:paused" ></path></g></g>
<g style="animation-play-state:paused" ><circle r="8.5" cy="18.89" cx="62.16" stroke-miterlimit="10" stroke-linejoin="round" stroke-linecap="round" stroke-width="3.5" stroke="#333435" fill="#F29DBB" style="stroke:rgb(51, 52, 53);fill:rgb(242, 157, 187);animation-play-state:paused" ></circle>
<path d="M58.05,17.04c0.49-1.08,1.39-1.93,2.5-2.36" stroke-miterlimit="10" stroke-linejoin="round" stroke-linecap="round" stroke-width="3.5" stroke="#FFFFFF" fill="#F29DBB" style="stroke:rgb(255, 255, 255);fill:rgb(242, 157, 187);animation-play-state:paused" ></path>
<path d="M67.6,12.37c0.04,0.34,0.06,0.68,0.06,1.03c-0.01,4.97-4.05,8.99-9.02,8.98c-1.73,0-3.34-0.5-4.71-1.35 c0.95,3.65,4.25,6.35,8.2,6.36c4.69,0.01,8.51-3.79,8.52-8.48C70.66,16.28,69.47,13.93,67.6,12.37z" stroke-miterlimit="10" stroke-linejoin="round" stroke-linecap="round" stroke-width="3.5" stroke="#000000" opacity="0.1" style="animation-play-state:paused" ></path></g>
<g style="animation-play-state:paused" ><circle r="8.5" cy="30.89" cx="48.16" stroke-miterlimit="10" stroke-linejoin="round" stroke-linecap="round" stroke-width="3.5" stroke="#333435" fill="#F29DBB" style="stroke:rgb(51, 52, 53);fill:rgb(242, 157, 187);animation-play-state:paused" ></circle>
<path d="M44.05,29.05c0.49-1.08,1.39-1.94,2.5-2.36" stroke-miterlimit="10" stroke-linejoin="round" stroke-linecap="round" stroke-width="3.5" stroke="#FFFFFF" fill="#F29DBB" style="stroke:rgb(255, 255, 255);fill:rgb(242, 157, 187);animation-play-state:paused" ></path>
<path d="M53.59,24.36c0.04,0.34,0.06,0.68,0.06,1.03c0,4.97-4.03,9-9,9c-1.73,0-3.34-0.5-4.71-1.34c0.96,3.65,4.27,6.34,8.21,6.34 c4.69,0,8.5-3.81,8.5-8.5C56.66,28.27,55.46,25.92,53.59,24.36z" stroke-miterlimit="10" stroke-linejoin="round" stroke-linecap="round" stroke-width="3.5" stroke="#000000" opacity="0.1" style="animation-play-state:paused" ></path></g>
<path d="M38.95,34.13c0.03,0.3,0.06,0.6,0.06,0.91c0,4.39-3.56,7.94-7.94,7.94c-1.53,0-2.95-0.44-4.16-1.19c0.84,3.22,3.76,5.6,7.25,5.6 c4.14,0,7.5-3.36,7.5-7.5C41.66,37.57,40.6,35.5,38.95,34.13z" stroke-miterlimit="10" stroke-linejoin="round" stroke-linecap="round" stroke-width="3.5" stroke="#000000" opacity="0.1" style="animation-play-state:paused" ></path>
<g style="animation-play-state:paused" ><circle r="7.5" cy="39.89" cx="34.16" stroke-miterlimit="10" stroke-linejoin="round" stroke-linecap="round" stroke-width="3.5" stroke="#333435" fill="#F29DBB" style="stroke:rgb(51, 52, 53);fill:rgb(242, 157, 187);animation-play-state:paused" ></circle>
<path d="M31.53,38.26c0.38-0.8,1.07-1.44,1.94-1.75" stroke-miterlimit="10" stroke-linejoin="round" stroke-linecap="round" stroke-width="3.5" stroke="#FFFFFF" fill="#F29DBB" style="stroke:rgb(255, 255, 255);fill:rgb(242, 157, 187);animation-play-state:paused" ></path></g>
<metadata xmlns:d="https://loading.io/stock/" style="animation-play-state:paused" ><d:name style="animation-play-state:paused" >sushi</d:name>


<d:tags style="animation-play-state:paused" >sushi,octopus,rice,japanese food,sea food,delicious</d:tags>


<d:license style="animation-play-state:paused" >by</d:license>


<d:slug style="animation-play-state:paused" >nll65q</d:slug></metadata></g><!-- generated by https://loading.io/ --></svg>